# xmcd
#
# Track frame offsets:
#	150
#	14026
#	42307
#	54301
#	63643
#	79212
#	88768
#	103334
#	115453
#	149372
#	160820
#	172936
#	185197
#	195954
#	210375
#	223107
#	234547
#	254070
#
# Disc length: 3712 seconds
#
# Revision: 2
# Processed by: cddbd v1.5.2PL0 Copyright (c) Steve Scherf et al.
# Submitted via: audiograbber 1.83.01
#
DISCID=100e7e12
DTITLE=Various Artist - The Soul of R&B [CD2 of 2)
DYEAR=1900
DGENRE=Blues
TTITLE0=Aaron Neville - Tell It Like It Is
TTITLE1=The Dells - Stay In My Corner
TTITLE2=Joe Simon - The Chokin' Kind
TTITLE3=Gladys Knight and The Pips - Every Beat Of My Heart
TTITLE4=Joe Tex - Ain't Gonna Bump No More (With No Big Fat Woman)
TTITLE5=Dinah Washington - September In The Rain
TTITLE6=P. P. Arnold - Angel Of The Morning
TTITLE7=Jerry Butler and The Impressions - For Your Precious Love
TTITLE8=Linda Clifford - Bridge Over Troubled Water
TTITLE9=Bobby Womack - Lookin' For A Love
TTITLE10=Tina Turner - I'm Moving On
TTITLE11=The Dixie Cups - Chapel Of Love
TTITLE12=Lee Dorsey - Ya-Ya
TTITLE13=Ike and Tina Turner - Baby Get It On
TTITLE14=Isaac Hayes - A Few More Kisses To Go
TTITLE15=Betty Harris - Nearer To You
TTITLE16=Al Jarreau - Lean On Me
TTITLE17=Curtis Mayfield - Freddie's Dead
EXTD=
EXTT0=
EXTT1=
EXTT2=
EXTT3=
EXTT4=
EXTT5=
EXTT6=
EXTT7=
EXTT8=
EXTT9=
EXTT10=
EXTT11=
EXTT12=
EXTT13=
EXTT14=
EXTT15=
EXTT16=
EXTT17=
PLAYORDER=
